<mxfile host="app.diagrams.net" modified="2022-11-03T21:19:30.006Z" agent="5.0 (Windows NT 10.0; Win64; x64) AppleWebKit/537.36 (KHTML, like Gecko) Chrome/107.0.0.0 Safari/537.36" etag="1DkK8Vzu-XDnCPW6zHSL" version="20.4.0" type="github">
  <diagram name="Page-1" id="c7488fd3-1785-93aa-aadb-54a6760d102a">
    <mxGraphModel dx="981" dy="528" grid="1" gridSize="10" guides="1" tooltips="1" connect="1" arrows="1" fold="1" page="1" pageScale="1" pageWidth="1100" pageHeight="850" background="none" math="0" shadow="0">
      <root>
        <mxCell id="0" />
        <mxCell id="1" parent="0" />
        <mxCell id="2b4e8129b02d487f-1" value="Professinoal Engineering" style="swimlane;html=1;childLayout=stackLayout;horizontal=1;startSize=20;horizontalStack=0;rounded=0;shadow=0;labelBackgroundColor=none;strokeWidth=1;fontFamily=Verdana;fontSize=8;align=center;" parent="1" vertex="1">
          <mxGeometry x="50" y="80" width="880" height="740" as="geometry" />
        </mxCell>
        <mxCell id="2b4e8129b02d487f-2" value="Level 1" style="swimlane;html=1;startSize=20;horizontal=0;" parent="2b4e8129b02d487f-1" vertex="1">
          <mxGeometry y="20" width="880" height="157" as="geometry" />
        </mxCell>
        <mxCell id="cjC6dYm5lV7wMh_6vhs--11" value="" style="edgeStyle=orthogonalEdgeStyle;rounded=0;orthogonalLoop=1;jettySize=auto;html=1;" edge="1" parent="2b4e8129b02d487f-2" source="2b4e8129b02d487f-6" target="cjC6dYm5lV7wMh_6vhs--10">
          <mxGeometry relative="1" as="geometry" />
        </mxCell>
        <mxCell id="2b4e8129b02d487f-6" value="Obtain Mech. Eng. Degree" style="rounded=1;whiteSpace=wrap;html=1;shadow=0;labelBackgroundColor=none;strokeWidth=1;fontFamily=Verdana;fontSize=8;align=center;" parent="2b4e8129b02d487f-2" vertex="1">
          <mxGeometry x="30" y="38.5" width="115" height="61.5" as="geometry" />
        </mxCell>
        <mxCell id="cjC6dYm5lV7wMh_6vhs--13" value="" style="edgeStyle=orthogonalEdgeStyle;rounded=0;orthogonalLoop=1;jettySize=auto;html=1;" edge="1" parent="2b4e8129b02d487f-2" source="cjC6dYm5lV7wMh_6vhs--10" target="cjC6dYm5lV7wMh_6vhs--12">
          <mxGeometry relative="1" as="geometry" />
        </mxCell>
        <mxCell id="cjC6dYm5lV7wMh_6vhs--10" value="Register as Candidate engineer" style="rounded=1;whiteSpace=wrap;html=1;shadow=0;labelBackgroundColor=none;strokeWidth=1;fontFamily=Verdana;fontSize=8;align=center;" vertex="1" parent="2b4e8129b02d487f-2">
          <mxGeometry x="170" y="38.5" width="120" height="61.5" as="geometry" />
        </mxCell>
        <mxCell id="cjC6dYm5lV7wMh_6vhs--16" style="edgeStyle=orthogonalEdgeStyle;rounded=0;orthogonalLoop=1;jettySize=auto;html=1;" edge="1" parent="2b4e8129b02d487f-2" source="cjC6dYm5lV7wMh_6vhs--12" target="cjC6dYm5lV7wMh_6vhs--14">
          <mxGeometry relative="1" as="geometry" />
        </mxCell>
        <mxCell id="cjC6dYm5lV7wMh_6vhs--12" value="Professional training" style="whiteSpace=wrap;html=1;fontSize=8;fontFamily=Verdana;rounded=1;shadow=0;labelBackgroundColor=none;strokeWidth=1;" vertex="1" parent="2b4e8129b02d487f-2">
          <mxGeometry x="315" y="38.49999999999997" width="120" height="60" as="geometry" />
        </mxCell>
        <mxCell id="cjC6dYm5lV7wMh_6vhs--17" style="edgeStyle=orthogonalEdgeStyle;rounded=0;orthogonalLoop=1;jettySize=auto;html=1;" edge="1" parent="2b4e8129b02d487f-2" source="cjC6dYm5lV7wMh_6vhs--14" target="cjC6dYm5lV7wMh_6vhs--15">
          <mxGeometry relative="1" as="geometry" />
        </mxCell>
        <mxCell id="cjC6dYm5lV7wMh_6vhs--14" value="Register as Professional" style="whiteSpace=wrap;html=1;fontSize=8;fontFamily=Verdana;rounded=1;shadow=0;labelBackgroundColor=none;strokeWidth=1;" vertex="1" parent="2b4e8129b02d487f-2">
          <mxGeometry x="470" y="38.49999999999997" width="120" height="60" as="geometry" />
        </mxCell>
        <mxCell id="cjC6dYm5lV7wMh_6vhs--15" value="CPD" style="whiteSpace=wrap;html=1;fontSize=8;fontFamily=Verdana;rounded=1;shadow=0;labelBackgroundColor=none;strokeWidth=1;" vertex="1" parent="2b4e8129b02d487f-2">
          <mxGeometry x="620" y="38.49999999999997" width="120" height="60" as="geometry" />
        </mxCell>
        <mxCell id="cjC6dYm5lV7wMh_6vhs--19" style="edgeStyle=orthogonalEdgeStyle;rounded=0;orthogonalLoop=1;jettySize=auto;html=1;entryX=0.5;entryY=0;entryDx=0;entryDy=0;" edge="1" parent="2b4e8129b02d487f-2" source="cjC6dYm5lV7wMh_6vhs--15" target="cjC6dYm5lV7wMh_6vhs--15">
          <mxGeometry relative="1" as="geometry">
            <mxPoint x="750" y="40" as="targetPoint" />
            <Array as="points">
              <mxPoint x="760" y="70" />
              <mxPoint x="760" y="10" />
              <mxPoint x="680" y="10" />
            </Array>
          </mxGeometry>
        </mxCell>
        <mxCell id="2b4e8129b02d487f-3" value="Level 2" style="swimlane;html=1;startSize=20;horizontal=0;" parent="2b4e8129b02d487f-1" vertex="1">
          <mxGeometry y="177" width="880" height="174" as="geometry" />
        </mxCell>
        <mxCell id="cjC6dYm5lV7wMh_6vhs--30" value="" style="edgeStyle=orthogonalEdgeStyle;rounded=0;orthogonalLoop=1;jettySize=auto;html=1;startArrow=none;startFill=0;endArrow=classic;endFill=1;" edge="1" parent="2b4e8129b02d487f-3" source="cjC6dYm5lV7wMh_6vhs--21" target="cjC6dYm5lV7wMh_6vhs--29">
          <mxGeometry relative="1" as="geometry" />
        </mxCell>
        <mxCell id="cjC6dYm5lV7wMh_6vhs--21" value="Register as Candidate engineer" style="rounded=1;whiteSpace=wrap;html=1;shadow=0;labelBackgroundColor=none;strokeWidth=1;fontFamily=Verdana;fontSize=8;align=center;" vertex="1" parent="2b4e8129b02d487f-3">
          <mxGeometry x="70" y="42.75" width="120" height="61.5" as="geometry" />
        </mxCell>
        <mxCell id="cjC6dYm5lV7wMh_6vhs--32" value="" style="edgeStyle=orthogonalEdgeStyle;rounded=0;orthogonalLoop=1;jettySize=auto;html=1;startArrow=none;startFill=0;endArrow=classic;endFill=1;" edge="1" parent="2b4e8129b02d487f-3" source="cjC6dYm5lV7wMh_6vhs--29" target="cjC6dYm5lV7wMh_6vhs--31">
          <mxGeometry relative="1" as="geometry" />
        </mxCell>
        <mxCell id="cjC6dYm5lV7wMh_6vhs--29" value="Complete application forms" style="rounded=1;whiteSpace=wrap;html=1;shadow=0;labelBackgroundColor=none;strokeWidth=1;fontFamily=Verdana;fontSize=8;align=center;" vertex="1" parent="2b4e8129b02d487f-3">
          <mxGeometry x="220" y="42.75" width="120" height="61.5" as="geometry" />
        </mxCell>
        <mxCell id="cjC6dYm5lV7wMh_6vhs--34" value="" style="edgeStyle=orthogonalEdgeStyle;rounded=0;orthogonalLoop=1;jettySize=auto;html=1;startArrow=none;startFill=0;endArrow=classic;endFill=1;" edge="1" parent="2b4e8129b02d487f-3" source="cjC6dYm5lV7wMh_6vhs--31" target="cjC6dYm5lV7wMh_6vhs--33">
          <mxGeometry relative="1" as="geometry" />
        </mxCell>
        <mxCell id="cjC6dYm5lV7wMh_6vhs--31" value="Pay application fee" style="rounded=1;whiteSpace=wrap;html=1;shadow=0;labelBackgroundColor=none;strokeWidth=1;fontFamily=Verdana;fontSize=8;align=center;" vertex="1" parent="2b4e8129b02d487f-3">
          <mxGeometry x="370" y="42.75" width="120" height="61.5" as="geometry" />
        </mxCell>
        <mxCell id="cjC6dYm5lV7wMh_6vhs--38" value="" style="edgeStyle=orthogonalEdgeStyle;rounded=0;orthogonalLoop=1;jettySize=auto;html=1;startArrow=none;startFill=0;endArrow=classic;endFill=1;" edge="1" parent="2b4e8129b02d487f-3" source="cjC6dYm5lV7wMh_6vhs--33" target="cjC6dYm5lV7wMh_6vhs--37">
          <mxGeometry relative="1" as="geometry" />
        </mxCell>
        <mxCell id="cjC6dYm5lV7wMh_6vhs--33" value="Wait for approval" style="rounded=1;whiteSpace=wrap;html=1;shadow=0;labelBackgroundColor=none;strokeWidth=1;fontFamily=Verdana;fontSize=8;align=center;" vertex="1" parent="2b4e8129b02d487f-3">
          <mxGeometry x="530" y="42.75" width="120" height="61.5" as="geometry" />
        </mxCell>
        <mxCell id="cjC6dYm5lV7wMh_6vhs--37" value="Professional training" style="rounded=1;whiteSpace=wrap;html=1;shadow=0;labelBackgroundColor=none;strokeWidth=1;fontFamily=Verdana;fontSize=8;align=center;" vertex="1" parent="2b4e8129b02d487f-3">
          <mxGeometry x="700" y="42.75" width="120" height="61.5" as="geometry" />
        </mxCell>
        <mxCell id="cjC6dYm5lV7wMh_6vhs--88" value="" style="endArrow=baseDash;dashed=1;html=1;rounded=0;startArrow=baseDash;startFill=0;endFill=0;" edge="1" parent="2b4e8129b02d487f-3">
          <mxGeometry width="50" height="50" relative="1" as="geometry">
            <mxPoint x="530" y="193" as="sourcePoint" />
            <mxPoint x="530" y="143" as="targetPoint" />
          </mxGeometry>
        </mxCell>
        <mxCell id="2b4e8129b02d487f-4" value="Level 3" style="swimlane;html=1;startSize=20;horizontal=0;" parent="2b4e8129b02d487f-1" vertex="1">
          <mxGeometry y="351" width="880" height="239" as="geometry" />
        </mxCell>
        <mxCell id="cjC6dYm5lV7wMh_6vhs--52" style="edgeStyle=orthogonalEdgeStyle;rounded=0;orthogonalLoop=1;jettySize=auto;html=1;entryX=0;entryY=0.5;entryDx=0;entryDy=0;startArrow=none;startFill=0;endArrow=classic;endFill=1;" edge="1" parent="2b4e8129b02d487f-4" source="cjC6dYm5lV7wMh_6vhs--23" target="cjC6dYm5lV7wMh_6vhs--51">
          <mxGeometry relative="1" as="geometry" />
        </mxCell>
        <mxCell id="cjC6dYm5lV7wMh_6vhs--23" value="Professional training" style="whiteSpace=wrap;html=1;fontSize=8;fontFamily=Verdana;rounded=1;shadow=0;labelBackgroundColor=none;strokeWidth=1;" vertex="1" parent="2b4e8129b02d487f-4">
          <mxGeometry x="30" y="69.5" width="70" height="60" as="geometry" />
        </mxCell>
        <mxCell id="cjC6dYm5lV7wMh_6vhs--39" value="Being exposed" style="whiteSpace=wrap;html=1;fontSize=8;fontFamily=Verdana;rounded=1;shadow=0;labelBackgroundColor=none;strokeWidth=1;" vertex="1" parent="2b4e8129b02d487f-4">
          <mxGeometry x="181" y="39.5" width="70" height="60" as="geometry" />
        </mxCell>
        <mxCell id="cjC6dYm5lV7wMh_6vhs--65" value="" style="edgeStyle=orthogonalEdgeStyle;rounded=0;orthogonalLoop=1;jettySize=auto;html=1;startArrow=none;startFill=0;endArrow=classic;endFill=1;" edge="1" parent="2b4e8129b02d487f-4" source="cjC6dYm5lV7wMh_6vhs--41" target="cjC6dYm5lV7wMh_6vhs--61">
          <mxGeometry relative="1" as="geometry" />
        </mxCell>
        <mxCell id="cjC6dYm5lV7wMh_6vhs--41" value="Assistanting" style="whiteSpace=wrap;html=1;fontSize=8;fontFamily=Verdana;rounded=1;shadow=0;labelBackgroundColor=none;strokeWidth=1;" vertex="1" parent="2b4e8129b02d487f-4">
          <mxGeometry x="318.5" y="39.5" width="60" height="60" as="geometry" />
        </mxCell>
        <mxCell id="cjC6dYm5lV7wMh_6vhs--68" style="edgeStyle=orthogonalEdgeStyle;rounded=0;orthogonalLoop=1;jettySize=auto;html=1;entryX=0;entryY=0.5;entryDx=0;entryDy=0;startArrow=none;startFill=0;endArrow=classic;endFill=1;" edge="1" parent="2b4e8129b02d487f-4" source="cjC6dYm5lV7wMh_6vhs--43" target="cjC6dYm5lV7wMh_6vhs--60">
          <mxGeometry relative="1" as="geometry" />
        </mxCell>
        <mxCell id="cjC6dYm5lV7wMh_6vhs--43" value="Participating" style="whiteSpace=wrap;html=1;fontSize=8;fontFamily=Verdana;rounded=1;shadow=0;labelBackgroundColor=none;strokeWidth=1;" vertex="1" parent="2b4e8129b02d487f-4">
          <mxGeometry x="448.5" y="39.5" width="60" height="60" as="geometry" />
        </mxCell>
        <mxCell id="cjC6dYm5lV7wMh_6vhs--70" style="edgeStyle=orthogonalEdgeStyle;rounded=0;orthogonalLoop=1;jettySize=auto;html=1;entryX=0;entryY=0.5;entryDx=0;entryDy=0;startArrow=none;startFill=0;endArrow=classic;endFill=1;" edge="1" parent="2b4e8129b02d487f-4" source="cjC6dYm5lV7wMh_6vhs--47" target="cjC6dYm5lV7wMh_6vhs--62">
          <mxGeometry relative="1" as="geometry" />
        </mxCell>
        <mxCell id="cjC6dYm5lV7wMh_6vhs--47" value="Contributing" style="whiteSpace=wrap;html=1;fontSize=8;fontFamily=Verdana;rounded=1;shadow=0;labelBackgroundColor=none;strokeWidth=1;" vertex="1" parent="2b4e8129b02d487f-4">
          <mxGeometry x="571.5" y="39.5" width="60" height="60" as="geometry" />
        </mxCell>
        <mxCell id="cjC6dYm5lV7wMh_6vhs--85" style="edgeStyle=orthogonalEdgeStyle;rounded=0;orthogonalLoop=1;jettySize=auto;html=1;entryX=0;entryY=0.5;entryDx=0;entryDy=0;startArrow=none;startFill=0;endArrow=classic;endFill=1;" edge="1" parent="2b4e8129b02d487f-4" source="cjC6dYm5lV7wMh_6vhs--49" target="cjC6dYm5lV7wMh_6vhs--81">
          <mxGeometry relative="1" as="geometry">
            <Array as="points">
              <mxPoint x="780" y="69" />
              <mxPoint x="780" y="103" />
            </Array>
          </mxGeometry>
        </mxCell>
        <mxCell id="cjC6dYm5lV7wMh_6vhs--49" value="Performing" style="whiteSpace=wrap;html=1;fontSize=8;fontFamily=Verdana;rounded=1;shadow=0;labelBackgroundColor=none;strokeWidth=1;" vertex="1" parent="2b4e8129b02d487f-4">
          <mxGeometry x="698.5" y="39.5" width="60" height="60" as="geometry" />
        </mxCell>
        <mxCell id="cjC6dYm5lV7wMh_6vhs--53" style="edgeStyle=orthogonalEdgeStyle;rounded=0;orthogonalLoop=1;jettySize=auto;html=1;entryX=0.005;entryY=0.418;entryDx=0;entryDy=0;entryPerimeter=0;startArrow=none;startFill=0;endArrow=classic;endFill=1;" edge="1" parent="2b4e8129b02d487f-4" source="cjC6dYm5lV7wMh_6vhs--51" target="cjC6dYm5lV7wMh_6vhs--39">
          <mxGeometry relative="1" as="geometry">
            <Array as="points">
              <mxPoint x="155" y="64" />
            </Array>
          </mxGeometry>
        </mxCell>
        <mxCell id="cjC6dYm5lV7wMh_6vhs--78" style="edgeStyle=orthogonalEdgeStyle;rounded=0;orthogonalLoop=1;jettySize=auto;html=1;entryX=0;entryY=0.5;entryDx=0;entryDy=0;startArrow=none;startFill=0;endArrow=classic;endFill=1;" edge="1" parent="2b4e8129b02d487f-4" source="cjC6dYm5lV7wMh_6vhs--51" target="cjC6dYm5lV7wMh_6vhs--55">
          <mxGeometry relative="1" as="geometry">
            <Array as="points">
              <mxPoint x="155" y="145" />
            </Array>
          </mxGeometry>
        </mxCell>
        <mxCell id="cjC6dYm5lV7wMh_6vhs--79" style="edgeStyle=orthogonalEdgeStyle;rounded=0;orthogonalLoop=1;jettySize=auto;html=1;exitX=0.5;exitY=1;exitDx=0;exitDy=0;entryX=0;entryY=0.5;entryDx=0;entryDy=0;startArrow=none;startFill=0;endArrow=classic;endFill=1;" edge="1" parent="2b4e8129b02d487f-4" source="cjC6dYm5lV7wMh_6vhs--51" target="cjC6dYm5lV7wMh_6vhs--76">
          <mxGeometry relative="1" as="geometry" />
        </mxCell>
        <mxCell id="cjC6dYm5lV7wMh_6vhs--51" value="And" style="ellipse;whiteSpace=wrap;html=1;aspect=fixed;fillColor=#FFFFFF;" vertex="1" parent="2b4e8129b02d487f-4">
          <mxGeometry x="140" y="84.75" width="29.5" height="29.5" as="geometry" />
        </mxCell>
        <mxCell id="cjC6dYm5lV7wMh_6vhs--55" value="CPD" style="rounded=1;whiteSpace=wrap;html=1;fillColor=#FFFFFF;" vertex="1" parent="2b4e8129b02d487f-4">
          <mxGeometry x="212.5" y="129.5" width="117.5" height="30.5" as="geometry" />
        </mxCell>
        <mxCell id="cjC6dYm5lV7wMh_6vhs--63" value="" style="edgeStyle=orthogonalEdgeStyle;rounded=0;orthogonalLoop=1;jettySize=auto;html=1;startArrow=none;startFill=0;endArrow=classic;endFill=1;" edge="1" parent="2b4e8129b02d487f-4" source="cjC6dYm5lV7wMh_6vhs--58" target="cjC6dYm5lV7wMh_6vhs--41">
          <mxGeometry relative="1" as="geometry" />
        </mxCell>
        <mxCell id="cjC6dYm5lV7wMh_6vhs--58" value="TER" style="whiteSpace=wrap;html=1;fontSize=8;fontFamily=Verdana;rounded=1;shadow=0;labelBackgroundColor=none;strokeWidth=1;" vertex="1" parent="2b4e8129b02d487f-4">
          <mxGeometry x="268.5" y="54.25" width="30" height="30.5" as="geometry" />
        </mxCell>
        <mxCell id="cjC6dYm5lV7wMh_6vhs--59" value="" style="edgeStyle=orthogonalEdgeStyle;rounded=0;orthogonalLoop=1;jettySize=auto;html=1;startArrow=none;startFill=0;endArrow=classic;endFill=1;" edge="1" parent="2b4e8129b02d487f-4" source="cjC6dYm5lV7wMh_6vhs--39" target="cjC6dYm5lV7wMh_6vhs--58">
          <mxGeometry relative="1" as="geometry" />
        </mxCell>
        <mxCell id="cjC6dYm5lV7wMh_6vhs--71" style="edgeStyle=orthogonalEdgeStyle;rounded=0;orthogonalLoop=1;jettySize=auto;html=1;entryX=0;entryY=0.5;entryDx=0;entryDy=0;startArrow=none;startFill=0;endArrow=classic;endFill=1;" edge="1" parent="2b4e8129b02d487f-4" source="cjC6dYm5lV7wMh_6vhs--62" target="cjC6dYm5lV7wMh_6vhs--49">
          <mxGeometry relative="1" as="geometry" />
        </mxCell>
        <mxCell id="cjC6dYm5lV7wMh_6vhs--62" value="TER" style="whiteSpace=wrap;html=1;fontSize=8;fontFamily=Verdana;rounded=1;shadow=0;labelBackgroundColor=none;strokeWidth=1;" vertex="1" parent="2b4e8129b02d487f-4">
          <mxGeometry x="648.5" y="54.25" width="30" height="30.5" as="geometry" />
        </mxCell>
        <mxCell id="cjC6dYm5lV7wMh_6vhs--72" style="edgeStyle=orthogonalEdgeStyle;rounded=0;orthogonalLoop=1;jettySize=auto;html=1;startArrow=none;startFill=0;endArrow=classic;endFill=1;" edge="1" parent="2b4e8129b02d487f-4" source="cjC6dYm5lV7wMh_6vhs--60" target="cjC6dYm5lV7wMh_6vhs--47">
          <mxGeometry relative="1" as="geometry" />
        </mxCell>
        <mxCell id="cjC6dYm5lV7wMh_6vhs--60" value="TER" style="whiteSpace=wrap;html=1;fontSize=8;fontFamily=Verdana;rounded=1;shadow=0;labelBackgroundColor=none;strokeWidth=1;" vertex="1" parent="2b4e8129b02d487f-4">
          <mxGeometry x="522.5" y="54.25" width="30" height="30.5" as="geometry" />
        </mxCell>
        <mxCell id="cjC6dYm5lV7wMh_6vhs--67" style="edgeStyle=orthogonalEdgeStyle;rounded=0;orthogonalLoop=1;jettySize=auto;html=1;entryX=0;entryY=0.5;entryDx=0;entryDy=0;startArrow=none;startFill=0;endArrow=classic;endFill=1;" edge="1" parent="2b4e8129b02d487f-4" source="cjC6dYm5lV7wMh_6vhs--61" target="cjC6dYm5lV7wMh_6vhs--43">
          <mxGeometry relative="1" as="geometry" />
        </mxCell>
        <mxCell id="cjC6dYm5lV7wMh_6vhs--61" value="TER" style="whiteSpace=wrap;html=1;fontSize=8;fontFamily=Verdana;rounded=1;shadow=0;labelBackgroundColor=none;strokeWidth=1;" vertex="1" parent="2b4e8129b02d487f-4">
          <mxGeometry x="398.5" y="54.25" width="30" height="30.5" as="geometry" />
        </mxCell>
        <mxCell id="cjC6dYm5lV7wMh_6vhs--83" style="edgeStyle=orthogonalEdgeStyle;rounded=0;orthogonalLoop=1;jettySize=auto;html=1;entryX=0;entryY=0.5;entryDx=0;entryDy=0;startArrow=none;startFill=0;endArrow=classic;endFill=1;" edge="1" parent="2b4e8129b02d487f-4" source="cjC6dYm5lV7wMh_6vhs--76" target="cjC6dYm5lV7wMh_6vhs--81">
          <mxGeometry relative="1" as="geometry">
            <Array as="points">
              <mxPoint x="380" y="195" />
              <mxPoint x="380" y="169" />
              <mxPoint x="780" y="169" />
              <mxPoint x="780" y="103" />
            </Array>
          </mxGeometry>
        </mxCell>
        <mxCell id="cjC6dYm5lV7wMh_6vhs--76" value="Engineering report" style="rounded=1;whiteSpace=wrap;html=1;fillColor=#FFFFFF;" vertex="1" parent="2b4e8129b02d487f-4">
          <mxGeometry x="211.25" y="179" width="120" height="31" as="geometry" />
        </mxCell>
        <mxCell id="cjC6dYm5lV7wMh_6vhs--81" value="Register as Professional" style="whiteSpace=wrap;html=1;fontSize=8;fontFamily=Verdana;rounded=1;shadow=0;labelBackgroundColor=none;strokeWidth=1;" vertex="1" parent="2b4e8129b02d487f-4">
          <mxGeometry x="800" y="72.5" width="70" height="60" as="geometry" />
        </mxCell>
        <mxCell id="cjC6dYm5lV7wMh_6vhs--84" style="edgeStyle=orthogonalEdgeStyle;rounded=0;orthogonalLoop=1;jettySize=auto;html=1;startArrow=none;startFill=0;endArrow=classic;endFill=1;entryX=0;entryY=0.5;entryDx=0;entryDy=0;" edge="1" parent="2b4e8129b02d487f-4" source="cjC6dYm5lV7wMh_6vhs--55" target="cjC6dYm5lV7wMh_6vhs--81">
          <mxGeometry relative="1" as="geometry">
            <mxPoint x="800" y="119" as="targetPoint" />
            <Array as="points">
              <mxPoint x="380" y="145" />
              <mxPoint x="380" y="169" />
              <mxPoint x="780" y="169" />
              <mxPoint x="780" y="103" />
              <mxPoint x="800" y="103" />
            </Array>
          </mxGeometry>
        </mxCell>
        <mxCell id="cjC6dYm5lV7wMh_6vhs--25" value="Level 4" style="swimlane;html=1;startSize=20;horizontal=0;" vertex="1" parent="2b4e8129b02d487f-1">
          <mxGeometry y="590" width="880" height="150" as="geometry" />
        </mxCell>
        <mxCell id="cjC6dYm5lV7wMh_6vhs--26" value="Register as professinoal" style="whiteSpace=wrap;html=1;fontSize=8;fontFamily=Verdana;rounded=1;shadow=0;labelBackgroundColor=none;strokeWidth=1;" vertex="1" parent="cjC6dYm5lV7wMh_6vhs--25">
          <mxGeometry x="30" y="39" width="70" height="60" as="geometry" />
        </mxCell>
        <mxCell id="cjC6dYm5lV7wMh_6vhs--20" style="edgeStyle=orthogonalEdgeStyle;rounded=0;orthogonalLoop=1;jettySize=auto;html=1;dashed=1;entryX=0.5;entryY=0;entryDx=0;entryDy=0;" edge="1" parent="2b4e8129b02d487f-1" source="cjC6dYm5lV7wMh_6vhs--10" target="cjC6dYm5lV7wMh_6vhs--21">
          <mxGeometry relative="1" as="geometry">
            <mxPoint x="70" y="220" as="targetPoint" />
            <Array as="points">
              <mxPoint x="230" y="150" />
              <mxPoint x="130" y="150" />
            </Array>
          </mxGeometry>
        </mxCell>
        <mxCell id="cjC6dYm5lV7wMh_6vhs--22" style="edgeStyle=orthogonalEdgeStyle;rounded=0;orthogonalLoop=1;jettySize=auto;html=1;dashed=1;startArrow=none;startFill=0;endArrow=baseDash;endFill=0;" edge="1" parent="1" source="cjC6dYm5lV7wMh_6vhs--12">
          <mxGeometry relative="1" as="geometry">
            <mxPoint x="310" y="260" as="targetPoint" />
            <Array as="points">
              <mxPoint x="435" y="210" />
              <mxPoint x="310" y="210" />
            </Array>
          </mxGeometry>
        </mxCell>
        <mxCell id="cjC6dYm5lV7wMh_6vhs--24" style="edgeStyle=orthogonalEdgeStyle;rounded=0;orthogonalLoop=1;jettySize=auto;html=1;dashed=1;startArrow=classic;startFill=1;endArrow=baseDash;endFill=0;exitX=0.5;exitY=0;exitDx=0;exitDy=0;" edge="1" parent="1" source="cjC6dYm5lV7wMh_6vhs--23">
          <mxGeometry relative="1" as="geometry">
            <mxPoint x="310" y="410" as="targetPoint" />
            <Array as="points">
              <mxPoint x="115" y="450" />
              <mxPoint x="310" y="450" />
            </Array>
          </mxGeometry>
        </mxCell>
        <mxCell id="cjC6dYm5lV7wMh_6vhs--87" style="edgeStyle=orthogonalEdgeStyle;rounded=0;orthogonalLoop=1;jettySize=auto;html=1;startArrow=none;startFill=0;endArrow=baseDash;endFill=0;dashed=1;" edge="1" parent="1" source="cjC6dYm5lV7wMh_6vhs--14">
          <mxGeometry relative="1" as="geometry">
            <mxPoint x="580" y="250" as="targetPoint" />
          </mxGeometry>
        </mxCell>
        <mxCell id="cjC6dYm5lV7wMh_6vhs--89" style="edgeStyle=orthogonalEdgeStyle;rounded=0;orthogonalLoop=1;jettySize=auto;html=1;exitX=0.5;exitY=0;exitDx=0;exitDy=0;dashed=1;startArrow=classic;startFill=1;endArrow=baseDash;endFill=0;" edge="1" parent="1" source="cjC6dYm5lV7wMh_6vhs--26">
          <mxGeometry relative="1" as="geometry">
            <mxPoint x="580" y="630" as="targetPoint" />
            <Array as="points">
              <mxPoint x="115" y="680" />
              <mxPoint x="580" y="680" />
            </Array>
          </mxGeometry>
        </mxCell>
      </root>
    </mxGraphModel>
  </diagram>
</mxfile>
